<svg height="512" fill="#7c4dff" viewBox="0 0 64 64" width="512" xmlns="http://www.w3.org/2000/svg">
    <g id="Solid">
        <path d="m32 3a21.134 21.134 0 0 0 -21 21.267c0 18.366 21 36.733 21 36.733s21-18.367 21-36.733a21.134 21.134 0 0 0 -21-21.267zm0 39a18 18 0 1 1 18-18 18.021 18.021 0 0 1 -18 18z" />
        <circle cx="26.5" cy="27.5" r="1.5" />
        <circle cx="37.5" cy="27.5" r="1.5" />
        <path d="m32 8a16 16 0 1 0 16 16 16.019 16.019 0 0 0 -16-16zm11 13h-2v9a1 1 0 0 1 -1 1h-1v3h-4v-3h-6v3h-4v-3h-1a1 1 0 0 1 -1-1v-9h-2v-2h2v-1a3 3 0 0 1 3-3h2v-3h8v3h2a3 3 0 0 1 3 3v1h2z" />
        <path d="m38 17h-12a1 1 0 0 0 -1 1v6h14v-6a1 1 0 0 0 -1-1z" />
    </g>
</svg>